<?xml version="1.0" standalone="no"?>
<!DOCTYPE svg PUBLIC "-//W3C//DTD SVG 20010904//EN"
 "http://www.w3.org/TR/2001/REC-SVG-20010904/DTD/svg10.dtd">
<svg version="1.0" xmlns="http://www.w3.org/2000/svg"
 width="90.000000pt" height="176.000000pt" viewBox="0 0 90.000000 176.000000"
 preserveAspectRatio="xMidYMid meet">

<g transform="translate(0.000000,176.000000) scale(0.100000,-0.100000)"
fill="#000000" stroke="none">
<path d="M795 1700 c-33 -22 -76 -45 -95 -51 -19 -7 -41 -20 -50 -30 -22 -26
-427 -269 -448 -269 -10 0 -28 -11 -39 -23 -11 -13 -49 -41 -83 -62 -35 -21
-58 -41 -52 -43 7 -2 40 12 74 32 l60 37 45 -38 c24 -21 71 -54 104 -74 32
-19 71 -47 86 -61 16 -14 41 -33 56 -43 35 -23 80 -108 80 -155 0 -34 -37
-105 -95 -183 -14 -17 -39 -59 -56 -92 -18 -33 -59 -94 -92 -135 -33 -41 -81
-112 -106 -158 -26 -45 -71 -110 -100 -143 -40 -44 -54 -68 -54 -89 0 -37 14
-38 37 -3 10 14 32 41 50 60 17 18 37 48 42 66 6 18 36 57 67 87 31 30 71 78
89 105 39 59 179 197 216 212 24 10 28 9 38 -15 15 -32 5 -239 -14 -297 -8
-22 -16 -66 -20 -99 -3 -32 -15 -80 -26 -106 -27 -63 -23 -114 10 -118 32 -5
48 12 31 33 -19 23 -7 88 36 186 24 57 40 115 50 181 7 53 25 127 39 165 16
42 29 108 36 173 5 58 18 139 27 180 9 41 16 102 15 135 -4 134 -22 531 -25
549 -2 14 14 29 64 60 78 47 100 66 78 65 -8 0 -42 -18 -75 -39z m-105 -276
c-12 -157 -31 -227 -59 -222 -9 2 -19 17 -24 33 -26 88 -61 106 -111 60 -24
-22 -28 -32 -23 -62 4 -19 13 -43 22 -53 46 -51 -17 -38 -146 30 -130 69 -148
83 -134 105 6 9 111 76 234 151 195 117 226 133 239 121 12 -13 12 -37 2 -163z
m-135 -264 c3 -6 -1 -13 -10 -16 -19 -8 -30 0 -20 15 8 14 22 14 30 1z"/>
</g>
</svg>
