<?xml version="1.0" standalone="no"?>
<!DOCTYPE svg PUBLIC "-//W3C//DTD SVG 20010904//EN"
 "http://www.w3.org/TR/2001/REC-SVG-20010904/DTD/svg10.dtd">
<svg version="1.0" xmlns="http://www.w3.org/2000/svg"
 width="176.000000pt" height="176.000000pt" viewBox="0 0 176.000000 176.000000"
 preserveAspectRatio="xMidYMid meet">
<metadata>
Created by potrace 1.14, written by Peter Selinger 2001-2017
</metadata>
<g transform="translate(0.000000,176.000000) scale(0.100000,-0.100000)"
fill="#000000" stroke="none">
<path d="M1285 1736 c-11 -6 -47 -27 -80 -47 -33 -20 -71 -40 -84 -44 -14 -4
-32 -16 -40 -25 -9 -10 -81 -58 -161 -106 -80 -48 -158 -95 -175 -105 -57 -35
-104 -59 -116 -59 -6 0 -28 -15 -49 -32 -20 -18 -59 -46 -86 -62 -37 -22 -44
-31 -31 -34 10 -2 26 3 35 10 9 8 34 24 56 37 42 24 45 23 97 -30 15 -14 51
-40 81 -57 30 -17 66 -42 80 -55 14 -13 42 -34 61 -46 40 -24 90 -117 89 -163
-1 -28 -63 -143 -100 -184 -9 -10 -25 -37 -35 -58 -22 -48 -78 -132 -110 -166
-25 -27 -101 -144 -130 -202 -17 -32 -33 -52 -99 -125 -11 -11 -23 -37 -28
-57 -11 -50 10 -47 51 7 18 23 40 49 50 57 9 8 22 31 28 51 7 21 34 57 65 86
29 28 68 72 87 99 33 49 158 178 200 208 32 22 44 20 58 -10 14 -32 5 -222
-14 -279 -7 -22 -16 -69 -20 -105 -3 -35 -15 -83 -26 -107 -23 -51 -25 -111
-4 -119 8 -4 26 -3 40 0 24 6 25 7 9 31 -21 32 -14 74 31 180 38 91 45 113 51
158 2 18 6 54 10 81 3 28 16 79 29 115 30 82 34 105 41 211 3 47 13 108 20
135 22 76 28 159 15 223 -6 31 -13 145 -14 252 -2 107 -7 202 -11 211 -6 13
10 27 71 65 43 26 80 49 82 50 1 2 1 7 0 11 -2 5 -13 4 -24 -1z m-160 -199
c-12 -195 -19 -258 -32 -294 -22 -60 -53 -47 -67 29 -10 55 -60 66 -101 22
-29 -31 -31 -57 -10 -98 8 -15 15 -32 15 -36 0 -18 -50 0 -152 52 -157 81
-165 95 -86 140 24 14 126 75 227 137 200 121 211 124 206 48z m-142 -381 c4
-10 0 -12 -15 -8 -15 4 -17 7 -6 13 17 11 15 11 21 -5z"/>
</g>
</svg>
